<svg xmlns="http://www.w3.org/2000/svg" width="16" height="16" viewBox="0 0 16 16">
  <metadata><?xpacket begin="﻿" id="W5M0MpCehiHzreSzNTczkc9d"?>
<x:xmpmeta xmlns:x="adobe:ns:meta/" x:xmptk="Adobe XMP Core 5.6-c138 79.159824, 2016/09/14-01:09:01        ">
   <rdf:RDF xmlns:rdf="http://www.w3.org/1999/02/22-rdf-syntax-ns#">
      <rdf:Description rdf:about=""/>
   </rdf:RDF>
</x:xmpmeta>
                                                                                                    
                                                                                                    
                                                                                                    
                                                                                                    
                                                                                                    
                                                                                                    
                                                                                                    
                                                                                                    
                                                                                                    
                                                                                                    
                                                                                                    
                                                                                                    
                                                                                                    
                                                                                                    
                                                                                                    
                                                                                                    
                                                                                                    
                                                                                                    
                                                                                                    
                                                                                                    
                           
<?xpacket end="w"?></metadata>
<defs>
    <style>
      .cls-1 {
        fill: #fff;
        fill-rule: evenodd;
      }
    </style>
  </defs>
  <path id="icone_phone" class="cls-1" d="M1131,23.645l-0.32.345c-0.17.191-1.75,1.868-3.16,2-0.08.008-.17,0.011-0.26,0.011-1.88,0-4.9-1.8-7.68-4.583a21.759,21.759,0,0,1-3.4-4.293,6.984,6.984,0,0,1-1.18-3.65c0.13-1.406,1.81-2.987,2-3.162l0.35-.318,4.29,4.29-1.44,1.441,5.07,5.072,1.44-1.44Zm-1.37.015-2.92-2.921-1.44,1.441-6.46-6.456,1.44-1.441-2.92-2.921a4.819,4.819,0,0,0-1.35,2.2,5.825,5.825,0,0,0,1.04,3.066,20.918,20.918,0,0,0,3.25,4.1c2.53,2.53,5.4,4.3,6.99,4.3,0.06,0,.12,0,0.17-0.007A4.86,4.86,0,0,0,1129.63,23.66Zm-0.68-6.4h0.98a6.2,6.2,0,0,0-6.2-6.2v0.978A5.224,5.224,0,0,1,1128.95,17.263Zm-2.28,0h0.97a3.914,3.914,0,0,0-3.91-3.914v0.978A2.942,2.942,0,0,1,1126.67,17.263Z" transform="translate(-1115 -10)"/>
</svg>
