<svg xmlns="http://www.w3.org/2000/svg" width="13" height="16" viewBox="0 0 13 16">
<defs>
    <style>
      .cls-1 {
        fill: #fff;
        fill-rule: evenodd;
      }
    </style>
  </defs>
  <path id="icon_account" class="cls-1" d="M1285.26,25.087V22.845a6.261,6.261,0,0,0-4.33-5.945,3.95,3.95,0,1,0-3.86,0,6.261,6.261,0,0,0-4.33,5.945v2.242a0.412,0.412,0,0,0,.41.407h11.71A0.413,0.413,0,0,0,1285.26,25.087Zm-9.4-11.632a3.14,3.14,0,1,1,3.14,3.138A3.144,3.144,0,0,1,1275.86,13.454Zm8.58,11.226h-10.89V22.842a5.445,5.445,0,0,1,10.89,0V24.68Z" transform="translate(-1272.75 -9.5)"/>
</svg>
