<svg xmlns="http://www.w3.org/2000/svg" width="40" height="40" viewBox="0 0 40 40">
  <metadata><?xpacket begin="﻿" id="W5M0MpCehiHzreSzNTczkc9d"?>
<x:xmpmeta xmlns:x="adobe:ns:meta/" x:xmptk="Adobe XMP Core 5.6-c138 79.159824, 2016/09/14-01:09:01        ">
   <rdf:RDF xmlns:rdf="http://www.w3.org/1999/02/22-rdf-syntax-ns#">
      <rdf:Description rdf:about=""/>
   </rdf:RDF>
</x:xmpmeta>
                                                                                                    
                                                                                                    
                                                                                                    
                                                                                                    
                                                                                                    
                                                                                                    
                                                                                                    
                                                                                                    
                                                                                                    
                                                                                                    
                                                                                                    
                                                                                                    
                                                                                                    
                                                                                                    
                                                                                                    
                                                                                                    
                                                                                                    
                                                                                                    
                                                                                                    
                                                                                                    
                           
<?xpacket end="w"?></metadata>
<defs>
    <style>
      .cls-1 {
        fill: #fff;
        fill-rule: evenodd;
      }
    </style>
  </defs>
  <path id="map" class="cls-1" d="M1168.71,3277.93v10.22l11.58-3.08v-3.79l-4.19-5.32Zm0,23.22,11.58-3.09v-10.27l-11.58,3.09v10.27Zm-14.21-16.45,11.58,3.41v-10.2l-11.58-3.4v10.19Zm20.07-13.11a7.047,7.047,0,0,1,5.72-6.9v-2.84l-11.58,3.09v10.27l6.15-1.64A6.976,6.976,0,0,1,1174.57,3271.59Zm11.43,0a4.4,4.4,0,0,0-8.79,0,4.329,4.329,0,0,0,.95,2.72l3.45,4.38,3.44-4.38A4.329,4.329,0,0,0,1186,3271.59Zm-4.39,1.31a1.31,1.31,0,1,1,1.31-1.31A1.31,1.31,0,0,1,1181.61,3272.9Zm-27.11,24.81,11.58,3.4v-10.25l-11.58-3.41v10.26Zm28.42,0.38,11.58,3.41v-10.26l-11.58-3.4v10.25Zm0-16.81v3.81l11.58,3.4V3278.3l-7.49-2.21Zm-28.42-9.52,11.58,3.4v-10.25l-11.58-3.41v10.26Zm28.42-9.87v2.8a7,7,0,0,1,5.38,9.04l6.2,1.82v-10.26Z" transform="translate(-1154.5 -3261.5)"/>
</svg>
