<svg xmlns="http://www.w3.org/2000/svg" width="16" height="16" viewBox="0 0 16 16"><defs><style>.cls-1{fill:#fff;fill-rule:evenodd}</style></defs><path id="icone_phone" class="cls-1" d="M1131 23.645l-.32.345c-.17.191-1.75 1.868-3.16 2-.08.008-.17.011-.26.011-1.88 0-4.9-1.8-7.68-4.583a21.759 21.759 0 0 1-3.4-4.293 6.984 6.984 0 0 1-1.18-3.65c.13-1.406 1.81-2.987 2-3.162l.35-.318 4.29 4.29-1.44 1.441 5.07 5.072 1.44-1.44zm-1.37.015l-2.92-2.921-1.44 1.441-6.46-6.456 1.44-1.441-2.92-2.921a4.819 4.819 0 0 0-1.35 2.2 5.825 5.825 0 0 0 1.04 3.066 20.918 20.918 0 0 0 3.25 4.1c2.53 2.53 5.4 4.3 6.99 4.3.06 0 .12 0 .17-.007a4.86 4.86 0 0 0 2.2-1.361zm-.68-6.4h.98a6.2 6.2 0 0 0-6.2-6.2v.978a5.224 5.224 0 0 1 5.22 5.225zm-2.28 0h.97a3.914 3.914 0 0 0-3.91-3.914v.978a2.942 2.942 0 0 1 2.94 2.939z" transform="translate(-1115 -10)"/></svg>