<svg xmlns="http://www.w3.org/2000/svg" width="12.5" height="16" viewBox="0 0 12.5 16"><defs><style>.cls-1{fill:#fff;fill-rule:evenodd}</style></defs><path id="icon_account" class="cls-1" d="M1285.26 25.087v-2.242a6.261 6.261 0 0 0-4.33-5.945 3.95 3.95 0 1 0-3.86 0 6.261 6.261 0 0 0-4.33 5.945v2.242a.412.412 0 0 0 .41.407h11.71a.413.413 0 0 0 .4-.407zm-9.4-11.632a3.14 3.14 0 1 1 3.14 3.138 3.144 3.144 0 0 1-3.14-3.139zm8.58 11.226h-10.89v-1.839a5.445 5.445 0 0 1 10.89 0v1.838z" transform="translate(-1272.75 -9.5)"/></svg>