<svg xmlns="http://www.w3.org/2000/svg" width="16" height="16" viewBox="0 0 16 16"><style>.cls-1{fill:#548301;fill-rule:evenodd}</style><path class="cls-1" d="M9.27 13.801a1.455 1.455 0 0 0-2.52 0 4.607 4.607 0 0 1-3.76-2.044l-.08-.138H1.45l.85 1.4a4.586 4.586 0 0 0 3.94 2.233h.51a1.455 1.455 0 1 0 2.52-1.451zm5.97-7.274a7.277 7.277 0 0 0-14.48 0H0v5.82h4.36v-5.82H2.22a5.823 5.823 0 0 1 11.55 0h-2.13v5.819H16V6.527h-.76zM2.91 7.982v2.91H1.45v-2.91h1.46zm11.64 2.91h-1.46v-2.91h1.46v2.91z"/></svg>