<svg xmlns="http://www.w3.org/2000/svg" width="68.25" height="50" viewBox="0 0 68.25 50"><defs><style>.cls-1{fill:#548301;fill-rule:evenodd}</style></defs><path id="payment" class="cls-1" d="M990.443 1076.5h-56.886a5.63 5.63 0 0 0-5.689 5.68v38.64a5.63 5.63 0 0 0 5.689 5.68h56.886a5.63 5.63 0 0 0 5.689-5.68v-38.64a5.63 5.63 0 0 0-5.689-5.68zm-56.886 2.27h56.886a3.352 3.352 0 0 1 3.413 3.41v1.14h-63.712v-1.14a3.351 3.351 0 0 1 3.413-3.41zm60.3 13.64h-63.713v-6.82h63.712v6.82zm-3.413 31.82h-56.887a3.351 3.351 0 0 1-3.413-3.41v-26.14h63.712v26.14a3.352 3.352 0 0 1-3.413 3.41zm-2.275-18.19h-20.48a1.078 1.078 0 0 0-1.138 1.14v11.36a1.073 1.073 0 0 0 1.138 1.14h20.479a1.073 1.073 0 0 0 1.137-1.14v-11.36a1.078 1.078 0 0 0-1.137-1.14zm-1.138 11.37h-18.2v-9.09h18.2v9.09zm-52.336-14.77h10.24a1.144 1.144 0 0 0 1.138-1.14 1.078 1.078 0 0 0-1.138-1.14h-10.24a1.14 1.14 0 0 0-.001 2.28zm25.03-2.28h-10.24a1.14 1.14 0 0 0 0 2.28h10.239a1.14 1.14 0 0 0 0-2.28zm-7.964 4.55h-17.067a1.135 1.135 0 1 0 0 2.27h17.066a1.135 1.135 0 1 0 0-2.27zm7.964 0h-3.413a1.135 1.135 0 1 0 0 2.27h3.413a1.135 1.135 0 1 0-.001-2.27z" transform="translate(-927.875 -1076.5)"/></svg>