<svg id="Слой_1" xmlns="http://www.w3.org/2000/svg" xmlns:xlink="http://www.w3.org/1999/xlink" viewBox="0 0 387 259"><style>.st0{fill:none}.st1{clip-path:url(#SVGID_2_)}.st2{fill:#142322}</style><path id="_x3C_Фрагмент_x3E_" class="st0" d="M-30 137H0v176h-30z"/><defs><path id="SVGID_1_" d="M0 0h387v259H0z"/></defs><clipPath id="SVGID_2_"><use xlink:href="#SVGID_1_" overflow="visible"/></clipPath><g class="st1"><path class="st2" d="M400 268.4c-2.6-38.9-5.1-77.9-7.7-116.8-2 .3-.1 0-1-.4v1.4c-1.9.2 0 0-.7.1v1c-.2.1-.4.1-.6.2.1-.4.1-.9.1-1.5-.1-1.3-.5-2.4-1.1-2.4s-.9 1-.8 2.3c0 .4 0 .7.2 1-.2 0-.5 0-.8.1 0-1.4.2-2.4-.3-2.8-.3-.2-1.1.4-1.5 1.5-.3-1.1-.5-1.7-.6-1.7s0 .7.1 1.8h-.3c-.3-1-.6-1.7-1-1.8-.5-.1-1.1 1.7-.4 3.8v.2c-.1-.1-.2-.1-.3-.1.2-.6 0-.1-.2.4-.2-.3-.5-.5-1.1.2v-.1h-.1c-.3-.9-.6-1.6-1-1.6-.5 0-.8.8-.9 1.9-.2 0-.3 0 0 0-.1.2-.1.4-.1.7s0 .6.1.9c-.6.2-1 .2-1.3.3-.2-.1-.3-.1-.5-.2l.1-.1c0-.1.1-.1.1-.2.1 0-.4-.1-1-.1 0-.1-.1-.1-.1-.2l-.1-.1-.1-.1h-.4c-.1-.1-.3-.2-.4-.3-.1-.2-.1-.3-.1 0-.6-.6-1.3-1.3-1.6-2.5.1-.7 0-1.5-.2-2.4-.6-2.3-.9-4-1.4-4.2-.4-.1-.9 1.2-.7 3-1.6.4.1 0-.6.2v.2c.1.8.5 1.5.5 2.3h-1.5v.8c0 .8.2 1.5.3 2.2-.1 0-.2.1-.3.1-1.1-1-1.4 1.2-1.2.8v.1h-1.7v.5h-.7c0 .3 0 .6.1.9-.2.2-.4.4-.5.6-.1 0-.3 0-.7.2 0 .4 0 .8.1 1.1-.2-2-1.6-3.3-2-3.2-.5.2-.2 1.2 0 2.6-.5.1-.9.2-1.1.3h-.2c-.2 0-.4 0-.7-.1-.4-1.2-1-2-1.5-1.8s-.7 1.3-.4 2.4v.2c-.1-.2-.2-.3-.3-.5v-.2c0-.2-.1-.4-.1-.6v-.2c.7-.1.3-.1-.2 0-.1.1-.2.1-.4.1h-.4c-.3 0-.6.1-.7.1h-.1c-.1-.3-.2-.5-.3-.6.1 0 .1 0 0 0-.1-.2-.3-.3-.5-.3-.3 0-.5.2-.7.5-.2 0-.4.1-.6.1v-.5c.7 0 .5 0 0 0h-.8c-.1-.2-.3-.3-.5-.3s-.3.1-.4.3h-.4v-.1c-.9.1 1.9-.4-2 .3-.1-.3-.2-.6-.2-.9 0-.3-.1-.5-.1-.8 0-.1-.1-.3-.1-.4v-.1c1 .1.2 0-.7 0-.1-.3-.2-.7-.3-1-.1-.2-.2-.4-.2-.6.2 0 .3-.1 0 0-.5.1-.9.2-1.2.3-.4-1.6-.7-2.7-1.1-2.7s-.5 1.2-.5 3.1c-.2 0-.3-.1-.4-.1h-.1c-.4.6.5-1.3-.7 1.3h-.8v.1c-.3 0-.2 0 0 0v.2c0 .1.1.2.1.3 0 .2.1.5.1.7 0 .3.1.6.1.9-.2.2-.5.4-.7.6 0-.1-.1-.1-.1-.2v-.1c.9-.3-.1 0-.8.3-.5-1.6-1.4-2.7-1.7-2.5-.4.2-.2 1.2-.1 2.5h-.1v1.1l-.1-.1-.2-.2c-2.2 1-.6.4-1 .7v.4c.1 0 .1.2.1.4-.2-.2-.4-.4-.5-.6-.5.1.3-.8-1-.2-.4-1.1-1-1.8-1.3-1.7-.4.1-.3.9-.3 1.9-.7.2-.1.6-.5.8l-.1.1-.2.2h-2.6v.2c-.1.2-.1.3-.1.5h-.1c-.1-.1-.1-.1-.2-.1-.2 0-.3.1-.4.2-.9.2-1.8.4-.8.2v.4c-.2.1-.5.1-.9.2v-.1c-.2-1.7-.7-3.1-1.3-3.1-.5 0-.8 1.4-.6 3.1 0-.1-.1-.2-.1-.3 0-.1-.1-.1-.1-.2-.1.1-.3.1-.4.1-.3-.6-.7-.9-1-.8l-.1.1c-.6-2.2-1.6-3.8-2-3.7-.3.1-.4.5-.3 1.1-.2-.2-.3-.3-.5-.3-.3.1-.6.7-.6 1.6h-.2c-.2 0-.4.2-.5.6-.1-.2-.1-.5-.2-.7-.8-2.5-1.9-4.4-2.4-4.3-.2 0-.3.5-.2 1.2-.2.2-.3.6-.3 1.1 0-.4-.1-.9-.3-1.4-.9-3.9-1.4-7-2-7-.4 0-.6 1.9-.4 4.4-.1-.1-.2-.1-.3-.1-.6.1-.5 2.4.1 5 .1.3.1.5.1.8v-.2c-.7-2.6-1.7-4.7-2.2-4.6-.3.1-.4.7-.3 1.7-.3-.6-.5-.9-.8-.9-.4.1-.6.9-.5 2-.1-.1-.2-.2-.3-.2-.6 0-.9 1.4-.9 3 0 .3.1.6.1.8-.4-.8-.8-1.2-1.2-1.1-.3.1-.4.4-.5.8h-.1c-.3-.1-.6.3-.9.9-.4-.9-.9-1.5-1.2-1.4-.5.2-.3 1.5-.3 3.1-.2-.3-.4-.4-.5-.4-.3.1-.5.7-.5 1.7-.1 0-.3.1-.4.1v.1h-.4c-.4-.6-.8-1-1-.9-.3.1-.4.5-.3 1.2 0 .7.2 1.5.3 2.5-.1.1-.2.1-.3.2l-.3-.6c0-.1-.1-.3-.1-.4v-.1c.7-.2.5-.1 0 0 .2-.1-.3.1-.9.2v-1c-.2-1.8-.6-3.2-1.1-3.2s-.7 1.6-.8 3.5c-.2.1-.4.1-.3.1v.1c-.5.1-.6.1 0 0 0 .1.1.3.1.4-.9.1-2.3.4-1.2.2v.1c0 .1.1.1.1.2s.1.3.1.4c.2.5.3 1.1.5 1.6.1.3.1.6.1.8-.1.1-.2.1-.3.1-.3-1.9-.7-3.2-1.2-3.2-.2-.1-.4.4-.6 1.1h-.6c-.2-1.9-.7-3.3-1.2-3.3-.4 0-.7 1-.7 2.3h-.1v.2c-.3 0-.5.1 0 0v.7c0 .3.1.7.1 1-.3-.1.2-.6-.2-.7h-.1c-.1 0-.3 0-.6.1-.2 0-.4.1-.7.1v.1c0 .4.1.8.1 1.2 0 .5.1.9.1 1.4-.2.1-.4.1-.7.2-.3-.4-.5-.6-.7-.6-.2.1-.3.2-.4.5-.1-.7-.3-1.2-.5-1.2s-.5.4-.7 1.1c-.1.1-.1.1 0 .1-.2.6-.3 1.4-.4 2.3 0-.1-.1-.1-.2-.1l-.2.2c-.1.1-.2.1-.3.1v.7c-.1 0-.2 0 0 0 0 .1-.1.2-.1.3v.1c-.1-.1-.2-.1-.3-.1v.4c0 .1.1.2.1.3s-.1.1-.1.1c.1 0 .1.1.1.2v.1c-.3.6-.5.9-.4 1 0 .1.1 0 .2 0v.1h-1.4v-1c0-.3 0-.7-.1-1 .5 0 .4 0 0 0-.2-1.2-.8-2.1-1.2-2-.3.1-.5.5-.6 1.2h-1.6v.8c-.3-1-.7-1.6-1-1.5-.4.1-.6 1.1-.5 2.4-.6-.1-1.2-.1-1-.1v.1c-.5 0-.6 0 0 0v.1c-.1.3-.2.7-.3 1-.2.1-.3.2-.5.3-.7 0-2.6.2-1.4.1v.2c0 .1-.1.3-.1.4-.1-.1-.3-.1-.4-.1-.5.1-.7.9-.5 1.9-1.1.2-.9.3-.7.3v.1c0 .2.1.4.1.6.1.6 0 1.2-.3 1.6-.1.1-.2.1-.3.1-.1 0-.1-.1-.2-.1.1-.1.1-.3.1-.4-.2.1-.3.1-.4.2-.1 0-.3-.1-.4-.2-.1.2-.2.5-.4.8-.6.2-1.2.3-1.9.5h-.9c-.3-1.2-1-2.1-1.4-1.9-.4.1-.6.7-.6 1.4h-.6c-.1-.2-.2-.3-.3-.4-.3-.1-.7 0-1.1.4h-.3c-.1-.8-.5-1.4-1-1.4-.2 0-.3.1-.5.3-.2-.4-.4-.6-.7-.6-.2 0-.5.3-.7.7-.2-.4-.5-.7-.8-.7-.1 0-.2 0-.3.1-.1-.3-.3-.5-.5-.6-.1-.6-.4-1-.7-1.1-.3 0-.7.5-1 1.4-.2-.7-.6-1.2-1-1.1-.6.1-.8 1.2-.6 2.4v.2h-.2v-.2c0-1.9.1-3.3-.5-3.5-.4-.1-1.2 1-1.4 2.5-.5 0-.8.8-.7 1.8v.1c-.1.1-.1.1-.2.1v-.9c-.7 0 1.1-.2-.5 0-.3-1.1-.8-1.9-1.2-1.8-.5.2-.6 1.6-.4 3.3-.2 0-.5.1-.8.1-.3-1.6-1-2.6-1.3-2.5-.4.1-.5 1-.4 2.2-.4-1-.9-1.6-1.3-1.5-.5.1-.6 1.3-.2 2.7-.2 0-.4 0-.7.1-.2-.7-.6-1.2-.9-1.1-.3 0-.5.2-.6.5l-.2.2h-.6v.1c-.3.1-.5.3-.7.7 0-.3-.1-.6-.2-.8.1-.1.1-.2-.1-.2h-.1c-.1-.1-.3-.2-.5-.2s-.4.1-.6.2h-.1v.1c-.2.2-.4.6-.4.9-.1.1-.1.2-.1.3h-.7c-.7-.1-1.4-.2-1.2-.2l-.2.2v-.2c.7 0 .5 0 0 0h-2.1c-.5 0-.7 0 0 0v.1c0 .1-.1.2-.1.3h-.6c-.3 0-.7-.1-1.5-.1-.1.1-.2.1-.3.2l-3 .3c-.2-.1-.4-.1-.3-.1h-.1v-.1c.1 0 .3 0 0 0h-1.3c-.1-.4-.1-.7-.2-1.1v-.1h-1.4c-.3-.7-.8-1-1.1-.9-.4.1-.5.5-.6 1.1-.4 0-.6-.1 0 0l-.1.1c-.1.2-.1.3-.2.5h-1.3v.2c0 .2-.1.5-.1.7-.9-.2-2.3-.4-1.2-.2v.1l-.1.1H230c-.1-.6-.5-1-.9-1-.2 0-.4.1-.5.2-.4-.1-.6.3-.7.5-.2.1-.7.1-1.1.2-.2-1-.6-1.7-1-1.6-.4.1-.8.7-.9 1.6-.1.1-.2.1-.2.1-.3-.9-.7-1.5-1-1.4-.2 0-.4.5-.5 1.1 0-.2-.2-.4-.3-.4-.3-.1-.8.3-1.1.9-.7.1-1.7.1-1.5.1v.1c0 .1-.1.1-.1.2-2.1.4-.3.1-.9.2v.2h-.1c-.4 0-.9-.1-1.4-.1-.7-.1-1.3 0-2 0v-.2c-1.7 0-1.3.1-1.1.2-.2 0-.4.1-.6.1 0-.1-.1-.2-.1-.3v-.1c-.6.1 1.2-.3-1.1.2-.1 0-.2-.1-.3-.1h-.2c.2-.6.2-.4 0 0h-.2c0-.1 0 0-.1.2-.5-.1-1-.2-1.5-.2v-.1H209c-.1-.1-.2-.1-.3-.1 0-.2-.1-.5-.1-.7-.5-2.5-1.5-4.4-2-4.3-.3.1-.4.9-.3 2.1-.6.2-1 .2-.3.1v.6h-.9v.1c0 .1.1.2.1.3 0 .2.1.4.1.6v.1c-.1 0-.3 0-.5.1-.2-.7-.4-1.1-.7-1.1-.1 0-.3.2-.5.5-.2-.5-.5-.8-.7-.8-.4 0-.7.8-.9 1.9-.2-.1-.4-.2-.6-.1-.2.1-.3.3-.4.6-.1.1-.3.2-.4.4-.1-.3-.4-.5-.6-.5-.3 0-.5.3-.7.7h-.7l.1.1h-1.5c-.5.1-1.1.1-1.6.2 0 0-.1-.1-.1-.2-.1-1.8-.9-3-1.4-2.9l-.3.3c-.3 0-.5.3-.6.7-.2-.4-.4-.7-.6-.7-.4 0-.7.6-.8 1.6-.2-1-.5-1.7-.9-2-.3-1.1-.7-2-1.1-2.6v-.1c.7.1.5 0-.1 0l-.4-.4c-.1-.4-.2-.7-.3-.9-.2-2.6-.9-4.4-1.3-4.3-.6.1-.5 2.6-.6 5.8-.3-.7-.6-1.1-.9-1-.5.2-.6 1.1-.7 2.5-.5-1.3-1.1-2.1-1.4-2h-.1c-.2-.5-.5-.7-.8-.6-.5.1-.8 1.2-.5 2.3-.1.4 0 .7 0 1h-.4c-.1 0-.2 0-.3.1-.3-1.5-1-2.6-1.5-2.5-.2.1-.4.4-.5.8h-.1c-.3 0-.6.5-.7 1.3-.5 0-1 .1-.9.1v.1c-.3 0-.5 0 0 0v.3c0 .3.1.6.1.9.1.1.1.2.1.3-.2-.1-.4-.1-.6-.2 0-.1-.1-.2-.1-.3-.1-2.1-.9-3.8-1.4-3.7s-.6 1.8-.6 3.8c-.3-.2-.7-.4-1.1-.5v-.1c-.3-1.7-1-3.1-1.5-2.9-.3.1-.5.5-.6 1.2-.6 0-.7 0-.6.1-.2.1-.4.4-.5.7-.1 0-.2.1-.3.1-.2 0-.4-.1-.6-.1.5 0 .4 0 0 0v-.1c.2 0-.2.1-.6.1h-.2c-.1-.3-.1-.5-.1-.8 0-.2-.1-.3-.1-.5v-.2h-.8c0-.1-.1-.2-.1-.3-.1-.2-.1-.5-.2-.7v-.5c.4-.1.3-.1 0 0-.2-1.7-.6-2.9-1-2.9s-.8 1.4-.9 3.2h-.3v-.1h-.6c-.5-1.3-1.2-2.2-1.5-2.1-.1 0-.2 0-.2.1-.4-.9-1-1.3-1.3-1.2-.2 0-.3.3-.3.7-.1-.4-.3-.7-.6-.7-.3-.1-.6.2-.9.7-.4-.5-.9-.8-1.2-.7-.2-.2-.4-.3-.6-.3-.5.1-.7.7-.7 1.5-.2.1-.5.1-.8.2-.1-.2-.2-.5-.3-.7 0-.2-.1-.3-.1-.5v-.1H156c-.1 0-.1-.1-.1-.1-.1-.2-.2-.3-.3-.5 0-.1-.1-.1-.1-.2.6-.2.4-.1 0 0v-.1c.2-.1-.9.2-1.6.4-.1-.1-.1-.3-.2-.4 0-.1-.1-.1-.1-.2l-.1-.1c.1 0 .3-.1 0 0-1 .2-1.5.3-1.7.3 0-.1-.1-.1-.1-.2.4-.5.3-.4 0 0-.2-.4-.5-.7-.7-1.1.1 0 .2-.1 0 0l-.1-.1v-.1c-2.8 1-.8.3-1.4.5v.3c-.1 0-.1.1-.1.1-.2-.3-.3-.6-.5-.9-.1-.1-.1-.2-.2-.3.1 0 .1 0 0 0l-.1-.1c-2.4.6-.7.2-1.2.4v.2c0 .2.1.5.1.7-.3-.1-.5-.2-.8-.3-.3-.2-.5-.4-.8-.6 0-.3 0-.6-.8-.5-.4-.2-.9-.3-1.3-.4-.1-.2-.1-.3-.1-.5-.3-2.6-1.3-4.7-1.8-4.5-.4.1-.5 1.2-.4 2.9h-.2v-.1c-.1-.1-.1-.3-.2-.4.1 0-.3 0-.9.1-.3-1.3-.7-2.2-1.1-2.1-.2 0-.3.2-.4.5h-.2c-.4.1-.5.8-.5 1.8h-.1c-.1 0-.2 0-.3.1s-.2.1-.3.1v.1c-.3.1-.1 0 0 0v.1c-.1 0-.1.1-.2.2h-.1c-.2-.4-.4-.6-.7-.6s-.4.2-.6.4c-.1-.4-.4-.6-.6-.6-.3 0-.5.3-.7.7-.2-.7-.5-1.2-.8-1.2-.6 0-1 1.4-1.1 3v.3c-.4-1-1-1.6-1.4-1.5-.3.1-.4.4-.5.8-.2-.2-.5-.4-.7-.3-.4.1-.7.6-.8 1.1-.7.1-.2.1-.2.1h-.1v.2c0 .2-.1.3-.1.4h-.1c0-.2-.1-.3-.2-.5 0-.1-.1-.1-.1-.2h-.1c0-.5-.1-1-.1-1.5v-.7c.9-.1.1-.1-.7 0v-.1c.7.1.4 0-.1 0v-.4c.3-3 0-5.5-.6-5.5-.5 0-1.1 2.2-1.4 5-.4-1-.9-1.5-1.1-1.4-.6.2-.3 2.2-.6 4.6h-.1c-.2 0-.3.1-.5.3-.2-.4-.4-.6-.7-.6-.3 0-.6.3-.8.8 0-1.2-.2-2.1-.6-2.1-.2 0-.3.1-.4.2 0-.1.1-.2.1-.3.7-2.8 0-5.1-.5-5-.6.1-.8 2.2-1.4 4.7 0 .2-.1.4-.1.6h-.2c-.1-.4-.2-.8-.3-1.1-.3-.9-.7-1.4-1-1.4-.3.1-.4.6-.5 1.3h-.1c-.2.1-.3.3-.4.6-.1-.4-.3-.6-.5-.6-.3 0-.6.4-.8 1-.2-.4-.5-.7-.7-.7-.4 0-.8.8-.9 1.9-.1-.1-.2-.1-.3-.1-.3 0-.4.3-.5.8-.4-1-.9-1.5-1.2-1.4-.4.1-.5 1-.4 2.2-.5-.9-1.2-1.3-1.5-1.2-.5.2-.3 1.3-.2 2.5h-.4c-.2-.2-.4-.4-.7-.4-.5 0-.9.4-1 .9h-.5v-.1c.1-.1.1-.3.2-.4 0-.3.2-.6.2-.9.2-1.1.2-2.2-.2-3.3 0-.1-.1-.3-.1-.4v-.1c.7-.2.3-.1-.4.1-.1-2.3-.6-4-1-4-.3 0-.6.8-.8 2.1h-.2c-.3.2-.3.8-.3 1.7h-.5c-.2-.3-.3-.4-.5-.4-.4 0-.8.6-1 1.5-.3-.4-.6-.6-.8-.5-.3.1-.4.4-.5.9 0-1.5-.4-2.8-.9-2.8-.3 0-.6.4-.8 1.1-.4-.7-1-1-1.3-.8-.5.2-.5 1-.5 1.7h-.6c-.2-.4-.5-.7-.8-.7s-.5.3-.7.6c-.1-.3-.2-.6-.3-.8.4 0 .3 0 0 0-.4-.7-.8-1.1-1.1-1-.2.1-.4.5-.5 1-.8.1-1.3.2-.5.1v.3c.1.7.1 1.4.1 2h-.2c-.1-.9-.4-1.6-.9-1.6s-.9.9-1 2.1c-.1-.1-.1-.1-.2-.1v-.2c0-.2-.1-.4-.2-.6-.1-.1-.1-.2-.2-.3 0-.1-.1-.1-.1-.2v-.1c.7-.1.3 0-.3.1-.4-2.2-1.5-3.4-1.9-3.3-.4.1-.3 1.3-.2 2.8h-.2c-.3-.7-.6-1.2-.9-1.1-.4.1-.5 1-.7 2.4-.3-.9-.7-1.6-1.1-1.5-.3.1-.6.7-.7 1.7-.2-.8-.4-1.3-.8-1.3-.3 0-.6.4-.8.9h-.1v.1c-.1-.1-.2-.2-.3-.2-.4-.1-.7.2-1 .7h-.2c-.2-.8-.5-1.4-.9-1.4-.6 0-1 1-1.1 2.4h-.1v-.5c-.2-1-.4-1.9-.8-2.3v-.2c-.6 0 .7-.1-.2 0-.1-.1-.3-.1-.4-.1s-.2.1-.3.2c-.2 0-.4.1-.7.1-.2 0-.1 0 0 0v1.3c-.4-1.3-1-2.3-1.4-2.2-.4-1.1-.8-2-1.1-1.9-.5.1-.7 1.5-.6 3.1H73v.7c0 .3 0 .5-.1.8v.2h-.1c0-.3-.1-.6-.1-.9v-.6h-.6c-.1-.9-.3-1.7-.7-1.8-.2 0-.5.2-.7.5h-.2l-.1.1c-.1 0-.5 0-1.2.1-.1-.8-.3-1.5-.7-1.6-.5-.1-.9.6-1.2 1.7.1-1.3-.3-2.2-.9-2.2-.5 0-.9.6-1.1 1.6-.2-1.4-.9-2.3-1.3-2.1-.5.2-.5 1-.6 2.3-.6.1-1.3.1-1.1.1v.1h-.2v-.5c-.1-1.4-.7-2.3-1.2-2.6-.3-1.5-1-2.4-1.3-2.3-.3-1.8-1.3-2.9-1.6-2.7-.4-1.8-1.4-2.9-1.7-2.7-.5.2 0 2.4 0 5v.1h-.2l-.1.1v-1.4c.6 0 .4 0 0 0v-.3h-.2c-.2-.8-.6-1.5-.9-1.4-.3.1-.5.5-.7 1.3h-.1v.1c0 .1-.1.3-.1.4-.1.3-.2.6-.3.8-.2.5-.4.9-.6 1.4-.2-.9-.3-1.6-.6-1.6-.4-.1-.8 1-1.1 2.5v.1c-.3-.4-.5-.8-.7-1-.1-.6-.2-1.1-.5-1.1s-.7.4-1 1.1c-.4-.3-.7-.3-.8-.2l-.1.1c-.2-1.2-.6-1.8-1-1.8-.3.1-.5.5-.7 1.3-.3-1.5-.9-2.4-1.3-2.3-.6.2-.8 1.8-.5 3.7h-.2c0-.3.1-.3 0 0h-.4c-.1-1.8-1-3-1.4-2.7-.4.2-.4 1-.5 2-.8 0-1.5-.1-.6 0 0 .1-.1.2-.1.3h-.2l-.3-.6c-.2-1-.4-1.6-.7-1.6-.1 0-.3.1-.4.3-.2-.1-.4-.1-.5 0-.3.3-.2.9-.2 1.7v.2c-.2-.1-.3-.2-.4-.2.2-2-1-3.4-1.3-3.1-.2.1-.2.3-.3.5-.4.1-.5 1.2-.4 2.5-.2-1-.8-1.5-1.1-1.4-.2.1-.3.2-.4.4-.2-.7-.4-1.3-.7-1.3-.1 0-.3.1-.4.3-.2-1-.7-1.6-1-1.5-.4.1-.5 1-.7 2-.1-.5-.3-.9-.5-.9-.5 0-.9.8-1.3 1.9-.1 0-.1-.1-.1-.1 0-.1-.1-.2-.1-.3s-.1-.1-.1-.2v-.1c.7-.1.2-.1-.4 0 0-1.8-.2-3.2-.6-3.2-.3 0-.7.8-1 1.8-.3-.2-.5-.2-.6-.1-.2.3-.2 1.1-.3 2.3-.1 0-.2-.1-.3-.1-.3-.9-.8-1.4-1.1-1.3-.2.1-.3.2-.4.5-.3 0-.9.3-1.3 1.1-.2-.1-.3-.2-.4-.2-.2 0-.4.1-.6.4 0-.4-.1-.6-.3-.8-.3-.1-.9.2-1.3 1-.5-1.4-1.6-2.1-1.9-1.8-.3.2-.2.7-.2 1.3 0 0-.1 0-.2.1l-.2.2c0-1.2-.4-2.2-.9-2.2s-.9 1-1.1 2.3c-.5-.8-1.1-1.1-1.3-.9v.1c-.3-.2-.7-.2-.8-.1-.3.3-.1.9 0 1.5H15v-.1l-.2-.2c.1 0 0 .1-.2.1-.1-1.1-.3-1.8-.7-1.8-.1 0-.1.1-.2.1-.4-.8-.7-1.1-.9-1-.5.2-.3 1.6-.5 3.5-.1 0-.2 0-.4.1.1 0 .1 0 0 0-.1-.3-.3-.4-.5-.5.3-1.4.1-2.5-.4-2.5-.4-.1-.8.7-1.3 1.6-.2-.3-.4-.5-.6-.5-.3 0-.6.6-.8 1.4 0-1.1-.3-1.7-.7-1.7-.6 0-1.2 1.2-1.3 2.7-.3-1.2-1-2-1.4-1.8-.5.1-.6 1.7-.4 3.1v.3c-.1.1-.3.1-.4.2-.2 0-.2.1 0 0-.2.1-.4.2-.5.2s-.1-.1-.1-.2c.1-.1.1-.2.1-.4.1-1.9-.2-3.4-.8-3.4-.5 0-1 1.2-1.2 2.9h-.1c.2-1.5.1-2.7-.4-2.9-.4-.1-.8.6-1.2 1.6-.2-.7-.3-1-.6-1-.6 0-1.1 1.6-1.2 3.4 0 .3.1.8 0 1.1-.5 0-1 .1-1.4.4-.7.3-1.2.8-1.8 1.1l-.1.1v.4c0 .1 0 .1 0 0v.1c.1.2.2.4.2.9-.1.1-.2.1-.3.2-2 32.4-3.9 64.8-5.9 97.1 138.4-15.6 275.3-17.1 411.2-6.1z"/></g></svg>