<svg xmlns="http://www.w3.org/2000/svg" width="30" height="31.25" viewBox="0 0 30 31.25"><defs><style>.cls-1{fill:#e5e5e5;fill-rule:evenodd}</style></defs><path id="loupe" class="cls-1" d="M930.446 404.676h-3.535v-3.54a.589.589 0 1 0-1.178 0v3.54H922.2a.59.59 0 0 0 0 1.179h3.535v3.539a.589.589 0 1 0 1.178 0v-3.539h3.535a.59.59 0 0 0-.002-1.179zm13.384 18.446l-8.753-9.115a12.384 12.384 0 1 0-.871.8l8.775 9.137a.58.58 0 0 0 .424.182.59.59 0 0 0 .425-1.004zm-28.7-17.857a11.193 11.193 0 1 1 11.193 11.208 11.212 11.212 0 0 1-11.194-11.208z" transform="translate(-913.938 -392.875)"/></svg>