<svg xmlns="http://www.w3.org/2000/svg" width="79" height="50" viewBox="0 0 79 50">
  <metadata><?xpacket begin="﻿" id="W5M0MpCehiHzreSzNTczkc9d"?>
<x:xmpmeta xmlns:x="adobe:ns:meta/" x:xmptk="Adobe XMP Core 5.6-c138 79.159824, 2016/09/14-01:09:01        ">
   <rdf:RDF xmlns:rdf="http://www.w3.org/1999/02/22-rdf-syntax-ns#">
      <rdf:Description rdf:about=""/>
   </rdf:RDF>
</x:xmpmeta>
                                                                                                    
                                                                                                    
                                                                                                    
                                                                                                    
                                                                                                    
                                                                                                    
                                                                                                    
                                                                                                    
                                                                                                    
                                                                                                    
                                                                                                    
                                                                                                    
                                                                                                    
                                                                                                    
                                                                                                    
                                                                                                    
                                                                                                    
                                                                                                    
                                                                                                    
                                                                                                    
                           
<?xpacket end="w"?></metadata>
<defs>
    <style>
      .cls-1 {
        fill: #548301;
        fill-rule: evenodd;
      }
    </style>
  </defs>
  <path id="delivery" class="cls-1" d="M604.976,1098.2l-2.046-8.19a1.243,1.243,0,0,0,.979-1.21v-1.32a5.2,5.2,0,0,0-5.2-5.2h-9.32v-2.72a2.562,2.562,0,0,0-2.557-2.56H539.328a2.562,2.562,0,0,0-2.557,2.56V1102a1.237,1.237,0,1,0,2.474,0v-22.44a0.086,0.086,0,0,1,.083-0.09h47.508a0.086,0.086,0,0,1,.082.09V1102a1.238,1.238,0,1,0,2.475,0v-1.4h14.6a4.049,4.049,0,0,1,3.845,2.8h-3.848a1.242,1.242,0,0,0-1.237,1.24v2.64a3.882,3.882,0,0,0,3.877,3.88h1.4v5.44H604.8a7.833,7.833,0,0,0-14.81,0h-0.6v-9.32a1.237,1.237,0,1,0-2.474,0v9.32H561.249a7.833,7.833,0,0,0-14.81,0h-7.111a0.078,0.078,0,0,1-.083-0.08v-2.72h5.361a1.24,1.24,0,0,0,0-2.48H532.729a1.24,1.24,0,0,0,0,2.48h4.042v2.72a2.562,2.562,0,0,0,2.557,2.56h6.683c0,0.03,0,.05,0,0.08a7.836,7.836,0,1,0,15.671,0c0-.03,0-0.05,0-0.08H589.56c0,0.03,0,.05,0,0.08a7.836,7.836,0,1,0,15.671,0c0-.03,0-0.05,0-0.08h4.044a1.236,1.236,0,0,0,1.238-1.24v-13.2A6.519,6.519,0,0,0,604.976,1098.2Zm-15.583-13.44h9.32a2.724,2.724,0,0,1,2.722,2.72v0.08H589.393v-2.8Zm0,13.36v-8.08h10.993l2.021,8.08H589.393Zm-35.549,26.41a5.365,5.365,0,1,1,5.361-5.37A5.372,5.372,0,0,1,553.844,1124.53Zm43.549,0a5.365,5.365,0,1,1,5.362-5.37A5.372,5.372,0,0,1,597.393,1124.53Zm10.64-15.85h-1.4a1.4,1.4,0,0,1-1.4-1.4v-1.4h2.8v2.8h0Zm-54.189,7.92a2.56,2.56,0,1,0,2.557,2.56A2.562,2.562,0,0,0,553.844,1116.6Zm43.549,0a2.56,2.56,0,1,0,2.557,2.56A2.562,2.562,0,0,0,597.393,1116.6Zm-14.516-5.28H564.4a1.24,1.24,0,0,0,0,2.48h18.476A1.24,1.24,0,0,0,582.877,1111.32Zm-31.672-5.28H535.369a1.24,1.24,0,0,0,0,2.48h15.836A1.24,1.24,0,0,0,551.205,1106.04Zm23.309-16.8a1.243,1.243,0,0,0-1.75,0l-11,11.01-5.723-5.73a1.237,1.237,0,0,0-1.75,1.75l6.6,6.61a1.242,1.242,0,0,0,1.749,0l11.877-11.89A1.238,1.238,0,0,0,574.514,1089.24Z" transform="translate(-531.5 -1077)"/>
</svg>
