<svg xmlns="http://www.w3.org/2000/svg" width="68.25" height="50" viewBox="0 0 68.25 50">
  <metadata><?xpacket begin="﻿" id="W5M0MpCehiHzreSzNTczkc9d"?>
<x:xmpmeta xmlns:x="adobe:ns:meta/" x:xmptk="Adobe XMP Core 5.6-c138 79.159824, 2016/09/14-01:09:01        ">
   <rdf:RDF xmlns:rdf="http://www.w3.org/1999/02/22-rdf-syntax-ns#">
      <rdf:Description rdf:about=""/>
   </rdf:RDF>
</x:xmpmeta>
                                                                                                    
                                                                                                    
                                                                                                    
                                                                                                    
                                                                                                    
                                                                                                    
                                                                                                    
                                                                                                    
                                                                                                    
                                                                                                    
                                                                                                    
                                                                                                    
                                                                                                    
                                                                                                    
                                                                                                    
                                                                                                    
                                                                                                    
                                                                                                    
                                                                                                    
                                                                                                    
                           
<?xpacket end="w"?></metadata>
<defs>
    <style>
      .cls-1 {
        fill: #548301;
        fill-rule: evenodd;
      }
    </style>
  </defs>
  <path id="payment" class="cls-1" d="M990.443,1076.5H933.557a5.63,5.63,0,0,0-5.689,5.68v38.64a5.63,5.63,0,0,0,5.689,5.68h56.886a5.63,5.63,0,0,0,5.689-5.68v-38.64A5.63,5.63,0,0,0,990.443,1076.5Zm-56.886,2.27h56.886a3.352,3.352,0,0,1,3.413,3.41v1.14H930.144v-1.14A3.351,3.351,0,0,1,933.557,1078.77Zm60.3,13.64H930.144v-6.82h63.712v6.82h0Zm-3.413,31.82H933.557a3.351,3.351,0,0,1-3.413-3.41v-26.14h63.712v26.14A3.352,3.352,0,0,1,990.443,1124.23Zm-2.275-18.19H967.689a1.078,1.078,0,0,0-1.138,1.14v11.36a1.073,1.073,0,0,0,1.138,1.14h20.479a1.073,1.073,0,0,0,1.137-1.14v-11.36A1.078,1.078,0,0,0,988.168,1106.04Zm-1.138,11.37h-18.2v-9.09h18.2v9.09h0Zm-52.336-14.77h10.24a1.144,1.144,0,0,0,1.138-1.14,1.078,1.078,0,0,0-1.138-1.14h-10.24A1.14,1.14,0,0,0,934.694,1102.64Zm25.03-2.28H949.485a1.14,1.14,0,0,0,0,2.28h10.239A1.14,1.14,0,0,0,959.724,1100.36Zm-7.964,4.55H934.694a1.135,1.135,0,1,0,0,2.27H951.76A1.135,1.135,0,1,0,951.76,1104.91Zm7.964,0h-3.413a1.135,1.135,0,1,0,0,2.27h3.413A1.135,1.135,0,1,0,959.724,1104.91Z" transform="translate(-927.875 -1076.5)"/>
</svg>
